<?xml version="1.0" encoding="utf-8"?>
<!-- Generator: Adobe Illustrator 23.0.3, SVG Export Plug-In . SVG Version: 6.00 Build 0)  -->
<svg version="1.1" id="Capa_1" xmlns="http://www.w3.org/2000/svg" xmlns:xlink="http://www.w3.org/1999/xlink" x="0px" y="0px"
	 viewBox="0 0 1200 1200" enable-background="new 0 0 1200 1200" xml:space="preserve">
<path fill="#7B576F" d="M851.388,413.339c-0.016-0.072-0.036-0.139-0.055-0.21c-0.121-0.453-0.299-0.885-0.55-1.278
	c-0.029-0.045-0.064-0.083-0.094-0.127c-0.273-0.398-0.598-0.761-0.988-1.057c-0.005-0.004-0.009-0.009-0.015-0.014
	c-0.385-0.289-0.832-0.502-1.31-0.66c-0.047-0.016-0.081-0.051-0.128-0.065c-0.026-0.008-0.052-0.001-0.078-0.009
	c-0.045-0.013-0.084-0.035-0.13-0.046c-0.427-0.104-0.851-0.124-1.269-0.108c-0.088,0.004-0.171,0.007-0.258,0.015
	c-0.454,0.044-0.891,0.149-1.304,0.32c-0.076,0.032-0.146,0.07-0.22,0.106c-0.416,0.199-0.806,0.446-1.145,0.761
	c-0.034,0.032-0.062,0.071-0.095,0.104c-0.345,0.341-0.642,0.734-0.866,1.181c-0.008,0.015-0.021,0.024-0.029,0.039
	c-0.689,1.403-68.976,140.713-93.183,183.65c-31.003,54.989-87.263,170.018-108.356,261.06
	c-2.226-61.258-4.078-122.453-4.22-151.416c-0.116-23.873-0.561-41.894-0.95-57.793c-0.802-32.563-1.434-58.284,0.897-114.683
	c2.532-61.312,3.037-82.126,3.12-89.023c9.666-4.091,41.536-17.823,67.516-31.818c0.667-0.073,1.328-0.277,1.935-0.659
	c0.96-0.604,1.8-1.202,2.536-1.79c11.62-6.453,21.636-12.844,27.298-18.255c2.57-2.217,58.758-51.989,52.154-152.049
	c-5.552-84.148-36.833-147.872-56.228-164.446c-3.881-3.316-7.529-4.965-10.842-4.944c-2.494-5.531-9.309-16.041-25.864-18.996
	c-17.005-3.04-25.27,3.648-28.473,7.439c-6.009-3.914-13.676-7.108-23.3-8.176c-19.265-2.145-33.734,4.462-43.768,20.066
	c-0.333-0.473-0.699-0.94-1.1-1.403c-0.294-0.396-0.664-0.789-1.107-1.189c-2.129-2.134-5.016-4.284-8.796-6.846
	c-5.641-3.819-13.956-4.919-24.733-3.269c-15.826,2.425-51.137,25.822-71.482,97.019c-20.645,72.26-16.435,148.664,10.987,199.394
	c26.974,49.9,55.973,73.061,110.741,88.488l5.549,1.665c-0.683,16.591-3.551,87.286-4.331,124.41
	c-0.908,43.469-0.226,89.198,2.808,188.196c1.275,41.612,2.394,76.682,3.359,105.951c-18.246-37.097-59.684-117.297-108.92-186.26
	C455.159,591.26,415.859,523.09,357.333,366.536c-0.013-0.035-0.035-0.064-0.049-0.099c-0.071-0.178-0.16-0.343-0.251-0.508
	c-0.051-0.092-0.094-0.188-0.151-0.275c-0.125-0.193-0.268-0.368-0.417-0.538c-0.038-0.042-0.069-0.091-0.109-0.132
	c-0.985-1.035-2.43-1.591-3.954-1.363c-0.011,0.002-0.021,0.006-0.032,0.008c-0.066,0.01-0.131,0.036-0.197,0.049
	c-0.228,0.045-0.453,0.096-0.667,0.173c-0.014,0.005-0.028,0.006-0.042,0.011c-0.089,0.033-0.165,0.086-0.251,0.124
	c-0.174,0.077-0.347,0.153-0.508,0.251c-0.109,0.066-0.205,0.145-0.307,0.218c-0.133,0.096-0.266,0.19-0.387,0.3
	c-0.098,0.088-0.183,0.186-0.272,0.282c-0.107,0.115-0.213,0.229-0.307,0.354c-0.078,0.103-0.144,0.212-0.213,0.32
	c-0.085,0.135-0.167,0.269-0.238,0.412c-0.056,0.114-0.102,0.232-0.149,0.35c-0.058,0.147-0.112,0.294-0.154,0.447
	c-0.037,0.131-0.062,0.264-0.087,0.398c-0.027,0.145-0.05,0.29-0.062,0.44c-0.013,0.151-0.013,0.303-0.011,0.456
	c0.001,0.083-0.012,0.163-0.006,0.247c0.083,1.179,8.853,119.357,43.647,245.519c34.708,125.849,128.001,314.927,184.856,374.654
	c52.773,55.436,49.86,155.639,49.825,156.644c-0.044,1.238,0.416,2.439,1.277,3.329c0.858,0.891,2.043,1.394,3.281,1.394h28.939
	c2.518,0,4.56-2.041,4.56-4.56v-82.782c0-15.957,20.36-60.445,43.932-111.958c33.146-72.435,74.4-162.581,92.052-240.167
	c30.566-134.332,50.395-294.078,50.591-295.677c0.004-0.037-0.01-0.071-0.006-0.107
	C851.514,414.267,851.487,413.795,851.388,413.339z M757.614,600.423c16.19-28.718,51.875-100.075,74.16-145.053
	c-19.264,74.237-61.247,229.993-99.587,331.372c-10.138,26.809-27.746,65.12-44.775,102.17
	c-18.702,40.691-32.876,71.945-40.983,93.228c-1.039-21.982-2.243-50.301-3.435-80.677
	C651.615,808.862,721.712,664.096,757.614,600.423z M733.164,384.956c-3.941,3.778-10.399,8.166-18.167,12.759
	c-3.472-3.892-11.344-4.2-17.813-2.28c-2.529,0.747-5.139-0.337-8.173-1.584c-4.756-1.956-11.943-4.915-18.51,2.54
	c-5.1,5.786-5.739,5.575-13.561,2.948l-2.295-0.761c-1.185-0.387-2.835-1.339-4.584-2.347c-7.113-4.106-19.027-10.986-33.217,1.887
	c-3.883,3.521-4.703,2.924-8.161,0.404c-0.914-0.666-1.948-1.415-3.112-2.087c-4.086-8.437-27.735-61.932-13.528-142.21
	c8.192-46.303,19.307-81.832,30.951-108.054c0.421-0.565,0.727-1.212,0.852-1.916c17.237-38.061,35.502-55.842,47.091-57.857
	c9.648-1.682,21.515-0.837,34.595,11.467c0.211,0.249,0.448,0.475,0.707,0.674c15.533,15.049,32.754,46.366,50.024,108.755
	C787.165,318.946,735.679,381.978,733.164,384.956z M782.498,240.117c2.437,36.902-4.254,66.805-13.41,89.631
	c7.757-30.673,10.456-72.531-4.038-124.888c-17.07-61.67-34.824-94.614-51.401-111.597c0.309-3.837,1.977-13.224,10.88-14.035
	c0.511-0.027,2.227,0.476,4.916,2.777C745.195,95.464,776.925,155.659,782.498,240.117z M697.063,60.109
	c11.341,2.025,16.454,8.565,18.564,12.529c-5.427,3.064-8.479,8.393-9.958,13.558c-6.232-4.685-12.243-7.282-17.931-8.562
	c-1.559-2.934-4.851-8.214-10.394-13.416C679.146,62.182,684.563,57.882,697.063,60.109z M645.884,59.457
	c16.145,1.793,25.602,10.735,30.438,17.191c-2.405,0.106-4.727,0.377-6.946,0.763c-14.918,2.595-32.712,20.941-49.025,53.526
	c-3.368-9.519-9.389-23.031-18.875-33.142c1.1-4.081,2.303-7.761,3.602-11.055c0.027-0.069,0.06-0.134,0.084-0.204
	C615.687,60.047,632.146,57.934,645.884,59.457z M586.37,86.834c-6.579-2.824-12.873-3.933-18.838-3.421
	c0.944-0.731,1.884-1.427,2.816-2.048c7.165-4.777,21.496-8.339,24.445-6.766c0.027,0.03,0.063,0.062,0.089,0.091
	c0.045,0.063,0.098,0.116,0.146,0.176c2.217,2.561,1.996,4.722,1.366,9.152c-0.877,2.263-1.714,4.609-2.482,7.101
	C591.56,89.443,589.052,87.985,586.37,86.834z M514.918,349.829c-26.33-48.714-30.255-122.495-10.239-192.551
	c19.781-69.226,52.975-88.806,64.095-90.509c5.427-0.832,9.979-0.839,13.506-0.072c-6.879,1.809-13.663,4.861-16.991,7.079
	c-7.588,5.056-15.369,12.977-22.658,23.911c-8.885,10.62-16.221,27.08-21.922,49.235c-7.302,24.898-12.185,55.903-12.815,93.513
	c-0.594,35.618,15.363,90.27,17.159,90.27c0.576,0,1.161-0.11,1.725-0.341c2.33-0.956-10.34-55.403-9.764-89.777
	c0.513-30.681,3.976-56.788,9.224-78.587c0.291-0.451,0.514-0.955,0.632-1.51c0.592-2.768,1.215-5.43,1.851-8.041
	c5.943-21.14,13.608-37.706,21.753-49.925c2.955-3.336,6.057-5.892,9.302-7.571c6.828-3.536,14.348-3.45,22.996,0.261
	c3.779,1.621,7.175,4.05,10.227,6.959c0.043,0.048,0.094,0.089,0.14,0.136c13.45,12.935,19.998,35.359,21.45,40.889
	c-12.426,28.113-23.632,64.813-31.528,109.438c-13.038,73.683,4.288,124.772,11.885,142.52c-3.332,0.991-5.822,2.936-7.884,4.574
	c-3.444,2.73-3.981,3.01-6.389,1.425c-6.65-4.38-23.335-8.188-29.479-2.595C538.27,386.659,526.394,371.058,514.918,349.829z
	 M620.181,433.898c-23.097-6.506-42.678-14.418-60.221-27.942c-0.393-0.392-0.738-0.754-0.992-1.051
	c3.868-0.365,12.145,0.876,16.687,3.865c8.039,5.292,13.475,0.965,17.073-1.896c1.992-1.579,3.708-2.942,5.804-3.205
	c1.3-0.154,2.485,0.548,4.777,2.221c3.845,2.801,10.284,7.484,19.662-1.02c9.26-8.397,15.711-4.677,22.533-0.741
	c2.17,1.251,4.222,2.434,6.309,3.116l2.227,0.741c9.334,3.126,14.621,4.308,23.308-5.571c2.084-2.365,3.242-2.17,8.194-0.132
	c3.848,1.584,8.636,3.555,14.232,1.894c1.922-0.57,3.692-0.759,5.134-0.763c-30.147,16.353-70.486,33.195-71.056,33.432
	c-0.887,0.368-1.607,1.006-2.097,1.789c-0.571-0.945-1.442-1.7-2.558-2.035L620.181,433.898z M625.773,885.45
	c0.964,28.636,1.742,50.529,2.331,66.559c0.575,15.666,1.023,27.227,1.355,35.471c-6.881-10.095-15.065-21.091-24.853-32.955
	C508.908,838.521,429.221,658.43,372.6,431.174c46.635,115.675,83.305,176.825,136.08,250.742
	C569.617,767.266,618.566,870.058,625.773,885.45z M655.776,1140.88h-19.751c0.027-21.187-3.055-106.696-52.402-158.535
	c-55.017-57.796-148.913-248.389-182.671-370.792c-17.067-61.878-27.829-121.826-34.36-166.783
	c56.775,223.233,136.032,400.466,230.978,515.559c14.299,17.332,25.119,32.807,33.302,46.169c0.1,0.216,0.209,0.405,0.336,0.558
	c20.419,33.497,24.18,53.557,24.567,55.937V1140.88z M791.986,708.508c-17.444,76.67-58.479,166.343-91.453,238.396
	c-19.045,41.623-34.182,74.729-40.926,96.534c-2.455-6.62-6.036-14.915-11.223-24.763c-0.16-2.362-0.336-5.198-0.526-8.516
	c-0.556-12.139,25.154-68.08,47.839-117.438c17.094-37.191,34.77-75.648,45.021-102.752c33.206-87.806,69.104-216.125,90.73-297.472
	C822.651,551.214,808.985,633.807,791.986,708.508z"/>
</svg>
