<svg xmlns="http://www.w3.org/2000/svg" xml:space="preserve" viewBox="0 0 1200 1200"><path fill="#7B576F" d="M851.388 413.339c-.016-.072-.036-.139-.055-.21a4.5 4.5 0 0 0-.55-1.278c-.029-.045-.064-.083-.094-.127a4.5 4.5 0 0 0-.988-1.057l-.015-.014a4.6 4.6 0 0 0-1.31-.66c-.047-.016-.081-.051-.128-.065-.026-.008-.052-.001-.078-.009-.045-.013-.084-.035-.13-.046a4.6 4.6 0 0 0-1.269-.108c-.088.004-.171.007-.258.015a4.5 4.5 0 0 0-1.304.32c-.076.032-.146.07-.22.106a4.6 4.6 0 0 0-1.145.761c-.034.032-.062.071-.095.104a4.5 4.5 0 0 0-.866 1.181c-.008.015-.021.024-.029.039-.689 1.403-68.976 140.713-93.183 183.65-31.003 54.989-87.263 170.018-108.356 261.06-2.226-61.258-4.078-122.453-4.22-151.416-.116-23.873-.561-41.894-.95-57.793-.802-32.563-1.434-58.284.897-114.683 2.532-61.312 3.037-82.126 3.12-89.023 9.666-4.091 41.536-17.823 67.516-31.818a4.5 4.5 0 0 0 1.935-.659c.96-.604 1.8-1.202 2.536-1.79 11.62-6.453 21.636-12.844 27.298-18.255 2.57-2.217 58.758-51.989 52.154-152.049-5.552-84.148-36.833-147.872-56.228-164.446-3.881-3.316-7.529-4.965-10.842-4.944-2.494-5.531-9.309-16.041-25.864-18.996-17.005-3.04-25.27 3.648-28.473 7.439-6.009-3.914-13.676-7.108-23.3-8.176-19.265-2.145-33.734 4.462-43.768 20.066a18 18 0 0 0-1.1-1.403 8.3 8.3 0 0 0-1.107-1.189c-2.129-2.134-5.016-4.284-8.796-6.846-5.641-3.819-13.956-4.919-24.733-3.269-15.826 2.425-51.137 25.822-71.482 97.019-20.645 72.26-16.435 148.664 10.987 199.394 26.974 49.9 55.973 73.061 110.741 88.488l5.549 1.665c-.683 16.591-3.551 87.286-4.331 124.41-.908 43.469-.226 89.198 2.808 188.196 1.275 41.612 2.394 76.682 3.359 105.951-18.246-37.097-59.684-117.297-108.92-186.26-60.942-85.354-100.242-153.524-158.768-310.078-.013-.035-.035-.064-.049-.099a5 5 0 0 0-.251-.508c-.051-.092-.094-.188-.151-.275a5 5 0 0 0-.417-.538c-.038-.042-.069-.091-.109-.132a4.51 4.51 0 0 0-3.954-1.363l-.032.008c-.066.01-.131.036-.197.049a4.6 4.6 0 0 0-.667.173c-.014.005-.028.006-.042.011-.089.033-.165.086-.251.124-.174.077-.347.153-.508.251-.109.066-.205.145-.307.218-.133.096-.266.19-.387.3-.098.088-.183.186-.272.282a5 5 0 0 0-.307.354c-.078.103-.144.212-.213.32a5 5 0 0 0-.238.412c-.056.114-.102.232-.149.35a4 4 0 0 0-.154.447 5 5 0 0 0-.087.398q-.042.216-.062.44a5 5 0 0 0-.011.456c.001.083-.012.163-.006.247.083 1.179 8.853 119.357 43.647 245.519 34.708 125.849 128.001 314.927 184.856 374.654 52.773 55.436 49.86 155.639 49.825 156.644a4.55 4.55 0 0 0 1.277 3.329 4.56 4.56 0 0 0 3.281 1.394h28.939a4.56 4.56 0 0 0 4.56-4.56v-82.782c0-15.957 20.36-60.445 43.932-111.958 33.146-72.435 74.4-162.581 92.052-240.167 30.566-134.332 50.395-294.078 50.591-295.677.004-.037-.01-.071-.006-.107a4.5 4.5 0 0 0-.078-1.411m-93.774 187.084c16.19-28.718 51.875-100.075 74.16-145.053-19.264 74.237-61.247 229.993-99.587 331.372-10.138 26.809-27.746 65.12-44.775 102.17-18.702 40.691-32.876 71.945-40.983 93.228-1.039-21.982-2.243-50.301-3.435-80.677 8.621-92.601 78.718-237.367 114.62-301.04m-24.45-215.467c-3.941 3.778-10.399 8.166-18.167 12.759-3.472-3.892-11.344-4.2-17.813-2.28-2.529.747-5.139-.337-8.173-1.584-4.756-1.956-11.943-4.915-18.51 2.54-5.1 5.786-5.739 5.575-13.561 2.948l-2.295-.761c-1.185-.387-2.835-1.339-4.584-2.347-7.113-4.106-19.027-10.986-33.217 1.887-3.883 3.521-4.703 2.924-8.161.404-.914-.666-1.948-1.415-3.112-2.087-4.086-8.437-27.735-61.932-13.528-142.21 8.192-46.303 19.307-81.832 30.951-108.054a4.54 4.54 0 0 0 .852-1.916c17.237-38.061 35.502-55.842 47.091-57.857 9.648-1.682 21.515-.837 34.595 11.467q.317.374.707.674c15.533 15.049 32.754 46.366 50.024 108.755 30.902 111.652-20.584 174.684-23.099 177.662m49.334-144.839c2.437 36.902-4.254 66.805-13.41 89.631 7.757-30.673 10.456-72.531-4.038-124.888-17.07-61.67-34.824-94.614-51.401-111.597.309-3.837 1.977-13.224 10.88-14.035.511-.027 2.227.476 4.916 2.777 15.75 13.459 47.48 73.654 53.053 158.112M697.063 60.109c11.341 2.025 16.454 8.565 18.564 12.529-5.427 3.064-8.479 8.393-9.958 13.558-6.232-4.685-12.243-7.282-17.931-8.562-1.559-2.934-4.851-8.214-10.394-13.416 1.802-2.036 7.219-6.336 19.719-4.109m-51.179-.652c16.145 1.793 25.602 10.735 30.438 17.191a55 55 0 0 0-6.946.763c-14.918 2.595-32.712 20.941-49.025 53.526-3.368-9.519-9.389-23.031-18.875-33.142 1.1-4.081 2.303-7.761 3.602-11.055.027-.069.06-.134.084-.204 10.525-26.489 26.984-28.602 40.722-27.079M586.37 86.834c-6.579-2.824-12.873-3.933-18.838-3.421a49 49 0 0 1 2.816-2.048c7.165-4.777 21.496-8.339 24.445-6.766.027.03.063.062.089.091.045.063.098.116.146.176 2.217 2.561 1.996 4.722 1.366 9.152a106 106 0 0 0-2.482 7.101c-2.352-1.676-4.86-3.134-7.542-4.285m-71.452 262.995c-26.33-48.714-30.255-122.495-10.239-192.551 19.781-69.226 52.975-88.806 64.095-90.509 5.427-.832 9.979-.839 13.506-.072-6.879 1.809-13.663 4.861-16.991 7.079-7.588 5.056-15.369 12.977-22.658 23.911-8.885 10.62-16.221 27.08-21.922 49.235-7.302 24.898-12.185 55.903-12.815 93.513-.594 35.618 15.363 90.27 17.159 90.27.576 0 1.161-.11 1.725-.341 2.33-.956-10.34-55.403-9.764-89.777.513-30.681 3.976-56.788 9.224-78.587.291-.451.514-.955.632-1.51.592-2.768 1.215-5.43 1.851-8.041 5.943-21.14 13.608-37.706 21.753-49.925 2.955-3.336 6.057-5.892 9.302-7.571 6.828-3.536 14.348-3.45 22.996.261 3.779 1.621 7.175 4.05 10.227 6.959.043.048.094.089.14.136 13.45 12.935 19.998 35.359 21.45 40.889-12.426 28.113-23.632 64.813-31.528 109.438-13.038 73.683 4.288 124.772 11.885 142.52-3.332.991-5.822 2.936-7.884 4.574-3.444 2.73-3.981 3.01-6.389 1.425-6.65-4.38-23.335-8.188-29.479-2.595-12.924-11.901-24.8-27.502-36.276-48.731m105.263 84.069c-23.097-6.506-42.678-14.418-60.221-27.942a19 19 0 0 1-.992-1.051c3.868-.365 12.145.876 16.687 3.865 8.039 5.292 13.475.965 17.073-1.896 1.992-1.579 3.708-2.942 5.804-3.205 1.3-.154 2.485.548 4.777 2.221 3.845 2.801 10.284 7.484 19.662-1.02 9.26-8.397 15.711-4.677 22.533-.741 2.17 1.251 4.222 2.434 6.309 3.116l2.227.741c9.334 3.126 14.621 4.308 23.308-5.571 2.084-2.365 3.242-2.17 8.194-.132 3.848 1.584 8.636 3.555 14.232 1.894a18.3 18.3 0 0 1 5.134-.763c-30.147 16.353-70.486 33.195-71.056 33.432a4.52 4.52 0 0 0-2.097 1.789c-.571-.945-1.442-1.7-2.558-2.035zm5.592 451.552c.964 28.636 1.742 50.529 2.331 66.559.575 15.666 1.023 27.227 1.355 35.471-6.881-10.095-15.065-21.091-24.853-32.955C508.908 838.521 429.221 658.43 372.6 431.174c46.635 115.675 83.305 176.825 136.08 250.742 60.937 85.35 109.886 188.142 117.093 203.534m30.003 255.43h-19.751c.027-21.187-3.055-106.696-52.402-158.535-55.017-57.796-148.913-248.389-182.671-370.792-17.067-61.878-27.829-121.826-34.36-166.783 56.775 223.233 136.032 400.466 230.978 515.559 14.299 17.332 25.119 32.807 33.302 46.169.1.216.209.405.336.558 20.419 33.497 24.18 53.557 24.567 55.937zm136.21-432.372c-17.444 76.67-58.479 166.343-91.453 238.396-19.045 41.623-34.182 74.729-40.926 96.534-2.455-6.62-6.036-14.915-11.223-24.763-.16-2.362-.336-5.198-.526-8.516-.556-12.139 25.154-68.08 47.839-117.438 17.094-37.191 34.77-75.648 45.021-102.752 33.206-87.806 69.104-216.125 90.73-297.472-8.797 58.717-22.463 141.31-39.462 216.011"/></svg>