<?xml version="1.0" encoding="utf-8"?>
<!-- Generator: Adobe Illustrator 23.0.3, SVG Export Plug-In . SVG Version: 6.00 Build 0)  -->
<svg version="1.1" id="Layer_1" xmlns="http://www.w3.org/2000/svg" xmlns:xlink="http://www.w3.org/1999/xlink" x="0px" y="0px"
	 viewBox="0 0 1200 1200" enable-background="new 0 0 1200 1200" xml:space="preserve">
<g>
	<path d="M489.486,404.407c1.553,1.361,3.061,2.223,3.919,3.515c3.619,5.45,7.045,11.029,10.992,17.272
		c-1.527,9.468,1.8,18.731,4.593,28.101c21.05,70.615,38.365,142.168,53.56,214.243c2.812,13.339,4.48,26.888,5.341,40.54
		c0.928,14.704,2.214,29.391,3.63,44.058c2.783,28.833,3.948,57.719,3.543,86.679c-0.03,2.134,0.327,4.275,1.846,6.66
		c1.39-5.582,3.303-11.093,4.082-16.759c4.088-29.741,8.159-59.502,8.44-89.598c0.209-22.403-1.03-44.719-4.198-66.932
		c-4.778-33.508-10.303-66.861-19.131-99.587c-4.696-17.409-10.718-34.369-17.085-51.222c-1.091-2.887-3.655-5.589-1.713-9.654
		c14.129,27.628,24.992,56.089,32.418,85.817c8.203,32.838,15.158,65.961,19.589,99.528c2.43,18.409,2.766,36.99,2.032,55.587
		c-1.316,33.356-5.867,66.287-12.347,98.988c-0.519,2.619-1.72,5.232-0.108,8.01c3.335,0.121,4.189-2.756,5.094-4.89
		c4.899-11.546,9.968-23.048,14.212-34.84c18.17-50.48,30.039-102.588,38.98-155.377c6.388-37.712,9.611-75.751,10.588-114.012
		c0.641-25.095,2.184-50.167,3.302-75.25c0.144-3.23,1.037-6.513-1.307-11.3c-7.508-4.493-16.241-9.99-25.225-15.042
		c-23.442-13.182-44.624-29.478-64.836-47.054c-6.977-6.067-13.645-12.678-19.477-19.837c-11.715-14.38-22.912-29.193-34.017-44.057
		c-5.884-7.876-10.763-16.438-14.558-25.559c-3.384-8.134-5.539-16.492-5.498-25.416c0.062-13.517,3.646-24.826,17.392-30.502
		c0.82-0.339,1.252-1.619,1.902-2.512c-0.268-4.568-3.245-7.982-5.344-11.738c-19.465-34.831-29.327-72.705-35.425-111.755
		c-0.582-3.725-0.493-7.644-0.101-11.41c0.547-5.254,2.469-7.131,10.115-11.558c5.805-0.333,10.324,2.767,14.663,6.104
		c8.673,6.671,16.726,14.016,23.994,22.229c2.458,2.777,4.202,6.439,8.144,7.531c3.138-0.237,3.217-2.715,3.322-4.737
		c0.368-7.085,0.386-14.189,0.749-21.275c0.592-11.561,3.17-22.747,7.864-33.289c7.694-17.281,21.135-20.201,35.005-7.367
		c5.556,5.14,9.975,11.519,14.837,17.396c3.082,3.726,4.883,8.558,9.285,11.056c3.632-1.806,3.998-5.188,4.863-8.317
		c2.323-8.407,4.325-16.927,7.173-25.154c1.761-5.086,4.3-10.1,7.432-14.471c6.083-8.493,15.948-9.507,24.441-3.13
		c4.9,3.68,8.586,8.42,11.164,13.922c2.078,4.434,3.778,9.048,5.573,13.611c0.802,2.039,1.495,4.097,3.795,5.051
		c2.807,0.174,3.146-2.302,4.141-4.043c1.895-3.315,3.556-6.777,5.623-9.978c7.429-11.505,17.078-19.798,31.236-21.046
		c12.617,0.935,21.495,7.908,28.63,17.338c11.359,15.012,19.321,31.454,21.784,50.49c1.976,15.276,3.066,30.385-0.194,45.584
		c-0.437,2.037-0.06,4.249-0.06,6.32c3.822,2.702,6.042-0.842,8.796-1.702c8.06-2.518,14.121,0.263,16.959,8.004
		c2.099,5.724,2.604,11.657,2.219,17.739c-4.34,68.638-23.246,133.046-56.351,193.265c-12.495,22.728-29.313,41.985-49.933,59.415
		c-0.422,10.071-1.389,20.914-1.237,31.742c0.523,37.157-1.483,74.24-3.592,111.284c-2.108,37.04-6.207,73.942-13.309,110.431
		c-0.399,2.049-0.567,4.144-1.005,7.437c5.507-3.372,6.725-8.218,8.652-12.327c15.112-32.221,33.495-62.543,53.376-91.972
		c33.347-49.362,73.985-91.63,123.036-125.66c10.762-7.467,21.255-15.321,31.922-22.928c2.644-1.886,5.476-3.515,9.836-1.525
		c-2.145,10.065-4.932,19.867-7.794,29.674c-19.57,67.057-55.845,124.062-104.697,173.372c-14.208,14.342-29.046,28.085-44,41.656
		c-23.922,21.71-50.295,40.116-78.309,56.517c-4.866,5.298-6.586,12.297-8.893,18.958c-1.783,5.147-3.049,10.474-4.537,15.723
		c-18.37,64.773-48.527,123.771-87.363,178.534c-2.107,2.971-5.26,5.538-5.017,9.697c1.396,1.576,3.003,1.216,4.514,0.564
		c2.504-1.081,4.978-2.243,7.401-3.497c49.556-25.651,102.713-39.34,157.521-47.679c19.992-3.042,40.125-4.459,60.242-6.162
		c5.94-0.503,11.844-1.427,17.797-2.162c4.009,1.802,5.341,5.106,5.13,9.349c-1.742,6.015-6.254,10.119-10.612,14.194
		c-20.749,19.396-41.978,38.252-65.059,54.868c-6.626,4.77-13.529,9.358-20.841,12.936c-33.418,16.352-67.733,30.222-104.547,37.197
		c-33.248,6.299-66.533,12.27-100.241,15.523c-8.146,0.786-16.339,1.061-24.506,1.636c-9.996,0.704-19.053,3.474-27.176,9.916
		c-7.241,5.742-15.299,10.487-23.165,15.403c-22.217,13.885-44.522,27.628-66.787,41.437c-9.746,6.044-19.496,12.071-30.322,16.082
		c-3.617,1.34-7.213,2.592-11.148,0.803c-3.78-3.162-3.176-6.88-0.112-9.811c3.516-3.364,7.575-6.245,11.686-8.889
		c27.083-17.422,54.277-34.673,81.35-52.111c4.942-3.183,10.927-5.34,13.209-11.345c0-1.324,0.269-2.491-0.04-3.477
		c-8.137-26.027-16.246-52.062-24.554-78.035c-4.5-14.068-7.818-28.411-10.396-42.917c-3.571-20.094-2.901-40.234,0.291-60.318
		c1.113-7.003,2.317-14.001,3.776-20.939c1.928-9.167,2.421-18.365,0.921-26.617c2.332-5.472,5.52-7.977,11.218-8.17
		c9.417,5.397,13.081,16.415,20.217,24.424c7.259,8.147,13.426,17.215,18.514,26.939c5.085,9.719,8.988,19.939,11.564,30.555
		c2.697,11.118,4.895,22.375,6.824,33.655c1.838,10.75,3.281,21.558,3.257,32.546c-0.023,10.971-1.247,21.761-3.007,32.561
		c-1.757,10.784-4.587,21.255-8.435,31.254c2.783,2.328,4.435,0.428,6.08-0.731c8.491-5.982,16.629-12.387,23.909-19.844
		c26.387-27.027,50.372-55.999,71.053-87.646c2.686-4.11,5.344-8.255,7.72-12.548c6.13-11.076,7.4-22.241,2.61-34.535
		c-7.53-19.327-14.858-38.634-24.637-57.04c-26.1-49.124-42.62-101.504-51.18-156.414c-3.109-19.945-6.66-39.859-8.709-59.92
		c-2.724-26.659-1.727-53.444,0.243-80.148c1.405-19.048,3.27-38.061,4.702-57.107c1.229-16.351,0.909-32.729,0.277-49.105
		c-0.189-4.885-0.017-9.8,0.308-14.68C483.921,406.339,485.692,404.966,489.486,404.407z M513.765,270.747
		c-4.871,9.89-2.866,18.418-0.345,26.762c2.698,8.929,7.23,17.087,12.393,24.804c9.401,14.049,18.828,28.093,28.725,41.792
		c5.088,7.043,10.85,13.692,16.933,19.907c24.991,25.534,54.037,45.743,84.82,63.586c1.357,0.786,3.061,0.972,5.087,1.583
		c2.323-3.568,4.626-7.106,6.59-10.122c4.355-1.376,7.937-2.507,11.497-3.632c16.24-20.242,31.214-40.927,43.034-63.849
		c16.079-31.18,28.032-63.769,36.351-97.864c6.236-25.562,9.76-51.38,10.965-77.584c0.105-2.276-0.68-4.261-4.073-4.607
		c-1.916,2.096-4.239,4.368-6.254,6.887c-8.915,11.143-15.947,23.432-21.615,36.492c-5.208,12.002-10.036,24.171-15.367,36.116
		c-3.102,6.949-6.643,13.729-10.413,20.342c-2.236,3.922-5.699,6.607-9.768,5.904c-5.176-1.605-6.946-5.071-7.583-8.906
		c-0.8-4.818-1.16-9.742-1.288-14.631c-0.328-12.54-0.264-25.091-0.651-37.629c-0.423-13.706-2.595-27.169-7.679-39.959
		c-2.606-6.557-5.523-13.236-13.665-15.267c-7.335,0.434-11.613,5.182-14.794,11.173c-3.608,6.794-5.619,14.163-7.093,21.681
		c-3.792,19.338-4.951,38.92-5.275,58.567c-0.135,8.179,0.092,16.364,0.007,24.544c-0.04,3.817-0.281,7.686-3.853,10.277
		c-2.728,1.268-5.24,0.869-7.805-1.31c-2.919-3.012-3.958-7.276-5.442-11.369c-2.972-8.197-5.925-16.414-9.282-24.457
		c-6.157-14.75-14.809-27.905-26.182-39.204c-4.662-4.632-9.597-8.917-15.618-11.733c-2.438-1.14-4.875-2.566-8.264-0.914
		c-0.669,0.815-2.114,1.885-2.606,3.29c-2.742,7.818-3.695,15.767-2.35,24.108c3.343,20.73,10.016,40.124,21.597,57.755
		c2.982,4.539,5.7,9.271,8.219,14.083c0.653,1.247,0.098,3.127,0.098,4.236c-2.503,3.729-5.457,4.156-9.863,2.449
		c-1.52-1.736-3.761-4.084-5.764-6.621c-11.238-14.23-24.897-25.974-38.847-37.34C531.633,274.618,524.086,270.208,513.765,270.747z
		 M666.425,120.182c-4.4-1.503-6.016-4.286-7.049-7.502c-2.168-6.747-4.154-13.555-6.456-20.255
		c-2.483-7.224-5.181-14.393-9.744-20.638c-1.935-2.649-4.027-5.23-7.754-5.41c-0.909,0.524-2.173,0.835-2.7,1.633
		c-1.785,2.705-3.693,5.433-4.863,8.422c-4.194,10.715-6.644,21.876-7.974,33.307c-0.818,7.026-1.667,14.1-5.71,19.508
		c-4.395,3.686-8.443,3.664-12.955,1.051c-5.487-5.008-8.77-12.029-13.073-18.297c-6.186-9.01-12.428-17.952-20.726-25.206
		c-2.093-1.83-4.41-3.215-7.665-1.997c-2.779,1.604-4.186,4.551-5.354,7.633c-4.13,10.897-5.311,22.211-4.626,33.768
		c0.581,9.801,1.354,19.593,1.756,29.401c0.155,3.773-0.048,7.675-0.858,11.348c-1.383,6.267-9.276,9.208-14.321,5.201
		c-3.8-3.018-7.066-6.783-10.245-10.492c-9.238-10.778-18.59-21.438-29.256-30.848c-2.377-2.097-4.437-4.977-8.064-4.567
		c-2.539,1.3-2.586,3.59-2.216,5.618c1.368,7.501,2.872,14.982,4.526,22.426c8.146,36.68,25.709,69.376,43.26,102.079
		c3.546,6.607,8.933,10.524,16.416,12.495c2.359-4.82,0.311-8.903-0.463-13.077c-2.422-13.05-2.974-26.06,2.263-38.634
		c5.157-12.381,14.021-15.832,26.44-10.431c7.586,3.299,14.147,8.163,20.182,13.769c9.266,8.607,16.78,18.61,23.47,29.287
		c1.618,2.582,2.559,6.016,7.098,6.131c0.313-2.077,0.712-4.174,0.933-6.289c1.187-11.386,2.206-22.79,3.531-34.16
		c1.079-9.253,3.396-18.248,7.277-26.736c3.7-8.09,8.901-15.018,16.908-19.397c11.577-6.331,22.227-4.385,30.852,5.55
		c3.999,4.606,6.75,9.96,8.761,15.619c4.029,11.342,6.932,22.967,7.557,35.063c0.451,8.717,0.851,17.437,1.406,26.147
		c0.133,2.081,0.205,4.464,2.954,5.231c3.576-1.347,3.621-5.084,4.932-7.82c5.887-12.288,11.291-24.809,17.256-37.057
		c2.671-5.484,4.366-11.201,5.503-17.062c2.282-11.771,4.541-23.57,6.098-35.451c2.382-18.167-0.338-35.93-6.279-53.13
		c-3.588-10.388-9.273-19.744-16.725-27.896c-4.067-4.449-8.382-8.67-15.026-8.907c-7.038,1.089-11.509,5.879-15.679,10.98
		c-4.884,5.976-8.266,12.818-10.836,20.058c-1.641,4.623-2.918,9.386-4.754,13.926C673.162,117.707,670.771,119.969,666.425,120.182
		z M563.23,861.188c4.985-4.042,4.156-7.527,4.056-10.591c-0.302-9.269-1.358-18.526-1.383-27.789
		c-0.091-32.819-3.219-65.395-7.383-97.891c-2.844-22.193-6.379-44.239-12.688-65.809c-16.687-57.061-34.061-113.942-46.544-172.146
		c-1.103-5.142-3.052-10.103-4.61-15.153c-5.002,1.604-4.584,5.31-4.892,8.355c-3.68,36.416-6.076,72.894-4.32,109.519
		c0.365,7.616,1.268,15.219,2.201,22.794c3.473,28.188,9.255,55.976,14.965,83.762c4.394,21.382,8.841,42.877,17.134,63.115
		C533.6,793.109,548.36,826.485,563.23,861.188z M764.116,948.878c-2.811-0.358-3.972-0.867-4.861-0.567
		c-22.709,7.661-107.895,37.995-128.07,44.621c-47.708,15.669-94.091,34.515-139.163,56.617c-3.889,1.907-7.64,4.128-11.302,6.445
		c-1.232,0.78-0.808,1.976,2.297,3.131c4.26-0.195,10.233-0.215,16.154-0.786c19.528-1.884,38.916-4.675,58.118-8.825
		c42.722-9.233,84.521-20.82,123.424-41.673c28.521-15.288,54.445-34.096,79.626-54.134
		C761.555,952.741,762.323,951.208,764.116,948.878z M673.761,730.241c4.256-0.091,6.364-1.843,8.457-3.54
		c35.191-28.545,69.665-57.903,100.792-90.934c13.858-14.706,26.84-30.171,37.342-47.542c18.127-29.984,32.073-61.966,44.992-94.431
		c0.777-1.953,1.715-4.125-0.933-6.762c-6.338,5.025-10.344,12.042-14.741,18.583c-15.238,22.667-31.537,44.513-49.333,65.236
		c-12.086,14.073-24.158,28.159-36.317,42.169c-17.17,19.783-33.993,39.824-49.438,61.023
		c-11.239,15.426-23.184,30.335-34.761,45.515C677.55,722.532,674.307,724.941,673.761,730.241z M497.132,1032.887
		c4.908,2.196,7.904-0.837,11.135-2.345c31.64-14.768,63.715-28.459,96.754-39.837c37.626-12.958,75.244-25.942,112.802-39.095
		c12.34-4.322,24.491-9.185,36.701-13.87c1.582-0.607,2.417-1.865,0.887-4.818c-8.578,0.646-17.713,0.969-26.853,2.208
		c-34.713,4.705-68.41,13.483-101.501,24.814c-40.514,13.873-78.012,33.707-113.572,57.355
		C507.256,1021.443,501.136,1025.891,497.132,1032.887z M841.404,491.878c-4.768,0.131-7.632,3.696-10.783,6.311
		c-27.774,23.049-53.12,48.556-75.849,76.582c-25.529,31.478-45.904,66.283-64.568,102.124c-1.349,2.59-4.127,5.251-2.163,8.887
		c3.97-1.332,5.583-5,7.627-7.991c27.466-40.169,59.617-76.554,91.612-113.027c18.377-20.949,35.218-43.022,51.416-65.634
		C840.155,497.095,842.548,495.258,841.404,491.878z M424.903,1053.167c1.805-1.205,1.402-2.938,1.293-4.53
		c-1.632-23.902-3.188-47.81-4.982-71.7c-1.1-14.659-2.197-29.335-3.971-43.921c-2.241-18.432-7.03-36.326-13.131-53.857
		c-0.725-2.085-1.848-3.957-4.536-3.866c-0.549,0.915-1.41,1.771-1.6,2.755c-5.52,28.627-7.146,57.561-0.649,86
		c6.538,28.614,15.461,56.685,23.413,84.973C421.324,1051.09,422.549,1052.981,424.903,1053.167z M406.447,847.271
		c-2.538,4.06-1.364,6.633-0.354,9.105c3.493,8.553,6.932,17.133,10.697,25.566c5.57,12.477,9.985,25.364,12.145,38.807
		c4.74,29.504,9.506,59.027,10.974,88.944c0.107,2.172-0.012,4.381,0.348,6.509c0.388,2.291-0.839,5.288,2.876,6.888
		c0.969-1.983,2.372-3.778,2.727-5.76c1.721-9.615,3.938-19.231,4.555-28.937c1.699-26.743-1.078-53.245-6.64-79.397
		c-4.882-22.956-16.654-42.321-32.74-59.171C410.004,848.745,408.323,848.287,406.447,847.271z"/>
</g>
</svg>
